# xmcd
# 
# Track frame offsets:
#     183
#     10720
#     22953
#     37803
#     50345
#     70063
#     82593
#     94615
#     106373
#     120108
#     128943
#     150475
#     170538
#     183413
#     199598
# 
# Disc length: 2826
# 
# Revision: 13
# Processed by: cddbd v1.5.2PL0 Copyright (c) Steve Scherf et al.
# Submitted via: fre:ac v1.0.17
# 
DISCID=a20b080f
DTITLE=Elvis Presley - Elvis - The Collection - Volume 4
DYEAR=1984
DGENRE=Rock and Roll
TTITLE0=Guitar Man
TTITLE1=US Male
TTITLE2=If I Can Dream
TTITLE3=In The Ghetto
TTITLE4=Suspicious Minds
TTITLE5=Don't Cry Daddy
TTITLE6=The Wonder Of You
TTITLE7=You Don't Have To Say You Love Me
TTITLE8=There Goes My Everything
TTITLE9=Rags To Riches
TTITLE10=I Just Can't Help Believing
TTITLE11=An American Trilogy
TTITLE12=Burning Love
TTITLE13=Always On My Mind
TTITLE14=It's Only Love
EXTD=
EXTT0=
EXTT1=
EXTT2=
EXTT3=
EXTT4=
EXTT5=
EXTT6=
EXTT7=
EXTT8=
EXTT9=
EXTT10=
EXTT11=
EXTT12=
EXTT13=
EXTT14=
PLAYORDER=
